<?xml version="1.0" standalone="no"?><!DOCTYPE svg PUBLIC "-//W3C//DTD SVG 1.1//EN" "http://www.w3.org/Graphics/SVG/1.1/DTD/svg11.dtd"><svg t="1513760529053" class="icon" style="" viewBox="0 0 1024 1024" version="1.1" xmlns="http://www.w3.org/2000/svg" p-id="4062" xmlns:xlink="http://www.w3.org/1999/xlink" width="25" height="25"><defs><style type="text/css"></style></defs><path d="M934.48936 203.517183 89.511663 203.517183c-14.813381 0-26.824949-11.998265-26.824949-26.824949s12.010545-26.824949 26.824949-26.824949l844.977697 0c14.813381 0 26.824949 11.998265 26.824949 26.824949S949.302741 203.517183 934.48936 203.517183z" p-id="4063" fill="#fff"></path><path d="M934.48936 538.824949 89.511663 538.824949c-14.813381 0-26.824949-11.997242-26.824949-26.824949 0-14.826684 12.010545-26.824949 26.824949-26.824949l844.977697 0c14.813381 0 26.824949 11.998265 26.824949 26.824949C961.313286 526.826684 949.302741 538.824949 934.48936 538.824949z" p-id="4064" fill="#fff"></path><path d="M934.48936 874.132714 89.511663 874.132714c-14.813381 0-26.824949-11.997242-26.824949-26.824949s12.010545-26.824949 26.824949-26.824949l844.977697 0c14.813381 0 26.824949 11.997242 26.824949 26.824949S949.302741 874.132714 934.48936 874.132714z" p-id="4065" fill="#fff"></path></svg>